<?xml version="1.0" encoding="utf-8"?>
<svg xmlns="http://www.w3.org/2000/svg" viewBox="0 0 500 500">
  <g transform="matrix(1, 0, 0, 1, -12.707344, -0.705968)">
    <rect x="152.488" y="34.063" width="301.447" height="407.342" style="stroke: rgb(0, 0, 0); fill: rgb(240, 240, 240);"/>
  </g>
  <g transform="matrix(1, 0, 0, 1, 46.770177, -17.059)">
    <g transform="matrix(1, 0, 0, 1, -4.684971, -134.628298)">
      <path d="M 355.178 219.753 C 360.318 224.894 359.613 234.747 359.616 241.641 C 359.276 252.786 354.446 261.567 347.178 269.753 C 346.555 270.518 338.853 284.544 339.717 283.921 C 347.164 278.404 352.629 271.709 358.014 264.222 C 358.59 263.495 358.59 263.495 359.178 262.753 C 359.508 262.753 359.838 262.753 360.178 262.753 C 360.851 274.355 359.485 284.779 351.85 293.964 C 340.188 306.443 324.281 314.222 309.178 321.753 C 325.57 316.261 340.186 309.957 354.178 299.753 C 353.626 308.206 349.753 315.453 344.178 321.753 C 333.891 329.95 320.735 334.385 308.178 337.753 C 317.911 337.385 326.836 335.302 336.178 332.753 C 333.535 339.609 325.398 344.107 319.068 347.343 C 316.133 348.594 313.193 349.712 310.178 350.753 C 308.931 351.196 308.931 351.196 307.658 351.648 C 298.472 354.66 288.837 356.132 279.178 355.753 C 279.394 355.075 279.611 354.397 279.834 353.699 C 283.292 342.14 282.955 332.976 278.178 321.753 C 275.83 317.54 273.05 313.623 270.178 309.753 C 271.541 306.458 272.736 305.096 275.889 303.456 C 276.633 303.059 277.377 302.662 278.144 302.253 C 278.939 301.841 279.734 301.428 280.553 301.003 C 288.08 296.958 295.206 292.713 302.178 287.753 C 303.16 287.057 304.142 286.361 305.154 285.644 C 328.248 268.816 346.904 247.493 355.178 219.753 Z" style="stroke-width: 1; paint-order: stroke markers;" fill="#17436D"/>
      <path d="M 137.178 219.753 C 137.838 219.753 138.498 219.753 139.178 219.753 C 139.434 220.65 139.691 221.548 139.955 222.472 C 144.24 236.439 150.649 248.524 160.33 259.519 C 162.178 261.753 162.178 261.753 163.244 263.988 C 164.108 266.114 164.108 266.114 167.178 266.753 C 168.886 268.378 170.548 270.05 172.178 271.753 C 182.592 282.131 194.522 289.956 207.228 297.265 C 208.238 297.847 209.248 298.429 210.288 299.029 C 212.273 300.164 214.266 301.285 216.269 302.389 C 217.169 302.901 218.07 303.413 218.998 303.941 C 219.805 304.388 220.612 304.835 221.444 305.296 C 222.016 305.777 222.588 306.258 223.178 306.753 C 223.178 311.306 222.368 312.402 219.865 316.066 C 212.418 327.364 210.493 338.116 213.178 351.503 C 213.499 352.923 213.828 354.341 214.178 355.753 C 193.856 355.118 172.643 350.025 158.178 334.753 C 158.508 334.093 158.838 333.433 159.178 332.753 C 160.25 333.207 161.323 333.661 162.428 334.128 C 170.104 337.005 178.023 337.886 186.178 337.753 C 185.208 337.485 184.239 337.217 183.24 336.941 C 169.878 333.094 152.656 328.066 145.252 315.48 C 142.336 310.023 139.916 304.962 139.178 298.753 C 139.604 299.094 140.031 299.434 140.471 299.784 C 153.525 309.905 167.081 316.964 183.178 320.753 C 182.544 320.437 181.91 320.12 181.257 319.794 C 157.564 307.899 157.564 307.899 148.178 299.753 C 147.5 299.196 146.822 298.639 146.123 298.066 C 138.397 291.168 134.172 280.942 133.178 270.753 C 133.052 267.73 133.08 264.781 133.178 261.753 C 135.992 264.462 138.391 267.262 140.74 270.378 C 154.843 288.059 174.37 297.784 194.178 307.753 C 193.127 307.102 193.127 307.102 192.055 306.437 C 172.116 294.018 149.279 279.131 138.178 257.753 C 137.63 256.717 137.082 255.68 136.518 254.613 C 134.525 249.832 134.779 244.98 134.865 239.878 C 134.862 238.936 134.859 237.994 134.855 237.023 C 134.901 230.984 135.671 225.601 137.178 219.753 Z" style="stroke-width: 1; paint-order: stroke markers;" fill="#16436D"/>
      <path d="M 271.178 265.753 C 271.838 266.083 272.498 266.413 273.178 266.753 C 269.882 273.673 263.943 275.753 257.178 278.753 C 257.504 279.298 257.83 279.844 258.166 280.406 C 265.178 292.505 265.178 292.505 265.178 298.753 C 264.518 298.753 263.858 298.753 263.178 298.753 C 262.518 297.763 261.858 296.773 261.178 295.753 C 260.29 305.736 264.785 313.713 270.564 321.534 C 276.437 329.611 276.987 338.027 276.178 347.753 C 273.587 358.009 265.609 365.014 257.178 370.753 C 256.493 371.253 255.809 371.754 255.103 372.269 C 254.427 372.738 253.75 373.207 253.053 373.691 C 252.452 374.112 251.851 374.534 251.232 374.968 C 248.171 376.138 246.321 375.623 243.178 374.753 C 240.738 373.473 238.524 372.201 236.24 370.691 C 235.625 370.287 235.009 369.884 234.375 369.468 C 226.627 364.227 219.691 357.141 217.746 347.647 C 217.534 345.457 217.47 343.328 217.49 341.128 C 217.495 340.348 217.499 339.569 217.503 338.765 C 217.927 327.791 223.741 319.66 229.822 310.824 C 234.111 304.274 236.758 297.669 235.178 289.753 C 232.051 285.3 228.304 283.404 223.178 281.753 C 218.833 281.232 214.929 281.252 211.178 283.753 C 211.684 279.322 212.888 276.796 216.178 273.753 C 218.458 273.091 220.717 272.684 223.057 272.284 C 225.964 271.556 227.328 270.047 229.178 267.753 C 232.321 266.182 235.669 266.61 239.115 266.628 C 239.844 266.624 240.573 266.62 241.324 266.616 C 244.536 266.622 247.11 266.731 250.178 267.753 C 252.815 267.876 255.415 267.938 258.053 267.941 C 258.76 267.953 259.468 267.965 260.197 267.978 C 264.363 267.989 267.386 267.411 271.178 265.753 Z" style="stroke-width: 1; fill: rgb(20, 63, 107); paint-order: stroke markers;"/>
      <path d="M 227.178 371.753 C 231.78 373.847 235.88 376.811 240.045 379.652 C 243.466 381.913 244.964 382.753 249.178 382.753 C 251.626 381.372 251.626 381.372 254.053 379.503 C 254.924 378.868 255.796 378.232 256.693 377.577 C 257.513 376.975 258.333 376.373 259.178 375.753 C 261.164 374.397 263.168 373.075 265.178 371.753 C 265.838 372.083 266.498 372.413 267.178 372.753 C 266.745 373.48 266.311 374.207 265.865 374.956 C 261.19 383.398 259.384 390.082 261.928 399.542 C 265.573 409.273 271.655 418.006 277.178 426.753 C 283.44 436.732 287.785 444.598 286.178 456.753 C 284.867 461.258 283.317 465.573 281.178 469.753 C 280.188 470.248 280.188 470.248 279.178 470.753 C 279.048 469.446 279.048 469.446 278.916 468.113 C 277.184 453.429 271.295 442.763 263.178 430.753 C 261.603 428.403 260.03 426.052 258.459 423.699 C 257.423 422.149 256.383 420.602 255.34 419.057 C 252.42 414.716 249.716 410.329 247.178 405.753 C 246.518 406.743 245.858 407.733 245.178 408.753 C 244.209 410.195 243.24 411.636 242.271 413.077 C 238.551 418.621 234.859 424.183 231.178 429.753 C 230.664 430.526 230.151 431.299 229.623 432.095 C 221.237 444.791 215.459 456.154 215.178 471.753 C 208.785 464.119 207.352 456.713 207.58 446.777 C 208.761 435.708 216.817 425.492 222.655 416.36 C 229.783 405.204 233.419 396.153 232.178 382.753 C 230.901 378.83 229.251 375.315 227.178 371.753 Z" style="stroke-width: 1; paint-order: stroke markers;" fill="#194169"/>
      <path d="M 246.178 418.753 C 250.729 420.26 252.708 423.983 255.178 427.816 C 255.619 428.491 256.06 429.166 256.515 429.862 C 264.178 441.784 264.178 441.784 264.178 448.753 C 260.878 449.083 257.578 449.413 254.178 449.753 C 250.713 443.813 250.713 443.813 247.178 437.753 C 244.206 440.725 242.815 442.932 241.178 446.753 C 241.178 448.073 241.178 449.393 241.178 450.753 C 241.93 451.142 242.682 451.53 243.457 451.931 C 246.24 453.37 249.022 454.811 251.804 456.252 C 253.009 456.877 254.215 457.501 255.421 458.124 C 257.152 459.018 258.882 459.915 260.611 460.812 C 261.653 461.351 262.696 461.891 263.769 462.446 C 266.178 463.753 266.178 463.753 267.178 464.753 C 267.519 469.057 267.503 473.375 267.553 477.691 C 267.609 479.49 267.609 479.49 267.666 481.325 C 267.763 491.239 265.644 498.284 258.803 505.566 C 257.617 506.653 256.408 507.717 255.178 508.753 C 254.563 509.273 253.948 509.792 253.314 510.327 C 248.863 513.807 248.863 513.807 246.279 513.605 C 238.263 510.356 231.739 503.096 228.065 495.432 C 227.039 492.333 226.95 489.838 226.982 486.577 C 226.992 484.842 226.992 484.842 227.002 483.072 C 227.019 481.873 227.035 480.675 227.053 479.441 C 227.062 478.223 227.071 477.006 227.08 475.751 C 227.104 472.752 227.136 469.753 227.178 466.753 C 228.931 467.42 228.931 467.42 230.721 468.101 C 232.269 468.673 233.817 469.245 235.365 469.816 C 236.134 470.11 236.903 470.405 237.695 470.708 C 243.349 472.803 243.349 472.803 249.178 471.753 C 250.168 471.093 251.158 470.433 252.178 469.753 C 246.651 466.189 241.009 462.978 235.178 459.941 C 234.016 459.331 234.016 459.331 232.83 458.708 C 230.947 457.72 229.063 456.736 227.178 455.753 C 228.996 441.361 236.88 429.576 246.178 418.753 Z" style="stroke-width: 1; fill: rgb(20, 63, 107); paint-order: stroke markers;"/>
      <path d="M 267.553 244.003 C 268.268 244.16 268.983 244.317 269.719 244.478 C 279.919 246.721 290.005 249.2 300.027 252.138 C 304.267 253.35 308.536 254.451 312.803 255.566 C 313.64 255.785 314.478 256.004 315.341 256.23 C 317.286 256.739 319.232 257.246 321.178 257.753 C 321.941 265.727 321.941 265.727 319.061 269.601 C 318.15 270.332 317.24 271.063 316.303 271.816 C 315.398 272.57 314.493 273.324 313.561 274.101 C 311.178 275.753 311.178 275.753 309.178 275.753 C 308.848 272.783 308.518 269.813 308.178 266.753 C 303.042 265.378 297.905 264.009 292.766 262.646 C 291.025 262.183 289.285 261.718 287.545 261.252 C 277.728 258.623 267.949 256.174 257.953 254.325 C 255.178 253.753 255.178 253.753 253.178 252.753 C 245.68 252.153 238.879 253.182 231.646 255.054 C 230.689 255.291 229.732 255.528 228.746 255.772 C 225.72 256.525 222.699 257.295 219.678 258.066 C 217.653 258.571 215.629 259.076 213.603 259.579 C 204.432 261.869 195.293 264.247 186.178 266.753 C 185.848 270.053 185.518 273.353 185.178 276.753 C 182.486 274.78 179.827 272.781 177.178 270.753 C 176.353 270.155 175.528 269.557 174.678 268.941 C 172.893 266.337 173.017 265.216 173.084 262.116 C 173.104 260.893 173.104 260.893 173.125 259.645 C 173.142 259.021 173.16 258.396 173.178 257.753 C 182.736 255.025 192.295 252.423 201.986 250.206 C 206.625 249.138 211.212 247.952 215.803 246.691 C 222.109 244.974 228.416 243.65 234.838 242.464 C 238.161 241.851 238.161 241.851 241.111 240.605 C 249.398 238.304 259.313 242.184 267.553 244.003 Z" style="stroke-width: 1; paint-order: stroke markers;" fill="#E89941"/>
      <path d="M 256.49 330.316 C 257.559 330.771 258.627 331.226 259.728 331.695 C 260.941 332.219 260.941 332.219 262.178 332.753 C 261.395 351.963 261.395 351.963 253.865 359.316 C 249.752 362.697 249.752 362.697 245.99 363.066 C 239.138 359.868 235.819 355.696 233.178 348.753 C 231.701 343.217 232.087 337.445 232.178 331.753 C 234.234 330.883 236.298 330.033 238.365 329.191 C 239.514 328.715 240.662 328.239 241.846 327.749 C 247.489 326.062 251.229 328.061 256.49 330.316 Z" style="stroke-width: 1; paint-order: stroke markers;" fill="#EBA346"/>
      <path d="M 320.178 352.753 C 315.7 371.247 307.428 386.161 294.178 399.753 C 293.582 400.387 292.987 401.022 292.373 401.675 C 288.142 406.082 283.522 410.75 278.178 413.753 C 276.049 413.632 276.049 413.632 274.178 412.753 C 271.928 409.691 271.928 409.691 270.178 406.753 C 271.655 403.096 273.607 401.405 276.74 399.066 C 288.728 389.675 299.024 378.421 303.553 363.628 C 304.885 359.689 305.57 358.156 309.072 355.835 C 316.35 352.753 316.35 352.753 320.178 352.753 Z" style="stroke-width: 1; paint-order: stroke markers;" fill="#D87F31"/>
      <path d="M 174.178 352.753 C 175.95 353.205 177.721 353.665 179.49 354.128 C 180.969 354.511 180.969 354.511 182.478 354.902 C 185.178 355.753 185.178 355.753 188.178 357.753 C 189.318 360.37 189.318 360.37 190.428 363.628 C 197.104 381.551 208.621 394.079 224.178 404.753 C 222.654 407.853 220.979 410.805 219.178 413.753 C 213.796 412.788 210.276 409.163 206.178 405.753 C 205.367 405.091 204.556 404.428 203.721 403.745 C 188.718 390.94 178.768 373.899 174.178 354.753 C 174.178 354.093 174.178 353.433 174.178 352.753 Z" style="stroke-width: 1; paint-order: stroke markers;" fill="#D27932"/>
      <path d="M 256.49 330.316 C 257.559 330.771 258.627 331.226 259.728 331.695 C 260.941 332.219 260.941 332.219 262.178 332.753 C 261.395 351.963 261.395 351.963 253.865 359.316 C 249.752 362.697 249.752 362.697 245.99 363.066 C 239.138 359.868 235.819 355.696 233.178 348.753 C 231.701 343.217 232.087 337.445 232.178 331.753 C 234.234 330.883 236.298 330.033 238.365 329.191 C 239.514 328.715 240.662 328.239 241.846 327.749 C 247.489 326.062 251.229 328.061 256.49 330.316 Z M 236.178 333.753 C 236.096 335.961 236.038 338.17 235.99 340.378 C 235.955 341.608 235.921 342.838 235.885 344.105 C 236.257 348.742 237.633 351.901 240.607 355.468 C 243.716 358.144 243.716 358.144 247.639 358.616 C 250.656 357.59 251.876 356.419 253.928 354.003 C 254.817 352.99 254.817 352.99 255.725 351.956 C 258.423 347.866 258.298 343.722 258.24 338.941 C 258.231 337.965 258.222 336.989 258.213 335.984 C 258.201 335.248 258.19 334.512 258.178 333.753 C 249.474 330.213 244.956 330.54 236.178 333.753 Z" style="stroke-width: 1; paint-order: stroke markers;" fill="#EAEAE7"/>
      <path d="M 246.178 330.753 C 246.838 339.993 247.498 349.233 248.178 358.753 C 242.529 357.624 242.529 357.624 239.928 354.378 C 239.428 353.772 238.927 353.166 238.412 352.542 C 235.758 348.696 236.074 345.089 236.115 340.566 C 236.124 339.293 236.133 338.021 236.143 336.71 C 236.154 335.734 236.166 334.759 236.178 333.753 C 237.656 333.251 239.136 332.752 240.615 332.253 C 241.439 331.975 242.263 331.696 243.111 331.409 C 245.178 330.753 245.178 330.753 246.178 330.753 Z" style="stroke-width: 1; paint-order: stroke markers;" fill="#D47F33"/>
      <path d="M 256.178 480.753 C 256.548 485.383 256.664 488.78 254.553 493.003 C 251.951 496.015 249.322 498.323 246.178 500.753 C 245.214 499.675 244.257 498.59 243.303 497.503 C 242.769 496.9 242.235 496.297 241.686 495.675 C 237.975 490.946 237.983 487.604 238.178 481.753 C 238.879 482.063 239.58 482.372 240.303 482.691 C 243.396 483.834 245.872 484.615 249.178 484.753 C 254.855 480.753 254.855 480.753 256.178 480.753 Z" style="stroke-width: 1; paint-order: stroke markers;" fill="#F6F4F2"/>
      <path d="M 380.178 426.753 C 385.128 426.753 381.878 430.753 380.178 430.753 C 380.178 429.433 380.178 428.113 380.178 426.753 Z" style="stroke-width: 1; paint-order: stroke markers;" fill="#F2F1F6"/>
      <path d="M 234.178 333.753 C 234.508 333.753 234.838 333.753 235.178 333.753 C 235.203 334.443 235.229 335.133 235.256 335.843 C 235.65 342.373 236.383 348.27 240.178 353.753 C 242.22 355.538 244.268 357.029 246.568 358.464 C 247.099 358.89 247.631 359.315 248.178 359.753 C 248.178 360.743 248.178 361.733 248.178 362.753 C 243.395 362.331 240.349 360.212 237.178 356.753 C 232.084 350.265 232.523 342.663 233.178 334.753 C 233.508 334.423 233.838 334.093 234.178 333.753 Z" style="stroke-width: 1; paint-order: stroke markers;" fill="#EDEDEC"/>
      <path d="M 241.178 328.753 C 241.508 329.413 241.838 330.073 242.178 330.753 C 241.188 332.238 241.188 332.238 240.178 333.753 C 238.858 333.753 237.538 333.753 236.178 333.753 C 236.178 337.383 236.178 341.013 236.178 344.753 C 235.848 344.753 235.518 344.753 235.178 344.753 C 234.848 341.453 234.518 338.153 234.178 334.753 C 233.848 337.393 233.518 340.033 233.178 342.753 C 232.848 342.753 232.518 342.753 232.178 342.753 C 232.178 339.123 232.178 335.493 232.178 331.753 C 235.148 330.763 238.118 329.773 241.178 328.753 Z" style="stroke-width: 1; paint-order: stroke markers;" fill="#D9D6D2"/>
      <path d="M 379.178 365.753 C 385.118 365.753 380.878 366.753 379.178 366.753 C 379.178 366.423 379.178 366.093 379.178 365.753 Z" style="stroke-width: 1; paint-order: stroke markers;" fill="#6B6B6D"/>
      <path d="M 335.178 332.753 C 335.178 333.743 335.178 334.733 335.178 335.753 C 333.279 337.577 333.279 337.577 330.803 339.441 C 329.991 340.063 329.178 340.686 328.342 341.327 C 326.178 342.753 326.178 342.753 324.178 342.753 C 324.053 340.003 324.053 340.003 325.178 336.753 C 328.364 334.962 331.692 333.829 335.178 332.753 Z" style="stroke-width: 1; paint-order: stroke markers;" fill="#28476B"/>
      <path d="M 250.178 327.753 C 252.49 329.316 252.49 329.316 254.178 330.753 C 251.263 331.549 248.432 332.006 245.428 332.316 C 244.229 332.441 244.229 332.441 243.006 332.57 C 242.101 332.66 242.101 332.66 241.178 332.753 C 243.16 327.232 244.374 326.095 250.178 327.753 Z" style="stroke-width: 1; paint-order: stroke markers;" fill="#F2F4F4"/>
      <path d="M 234.178 333.753 C 234.508 333.753 234.838 333.753 235.178 333.753 C 235.508 339.363 235.838 344.973 236.178 350.753 C 235.518 350.753 234.858 350.753 234.178 350.753 C 232.684 347.766 233.046 345.009 233.053 341.691 C 233.05 340.421 233.048 339.151 233.045 337.843 C 233.178 334.753 233.178 334.753 234.178 333.753 Z" style="stroke-width: 1; paint-order: stroke markers;" fill="#F5F7F7"/>
      <path d="M 243.178 422.753 C 243.178 427.885 239.858 431.042 236.428 434.628 C 235.314 435.68 235.314 435.68 234.178 436.753 C 235.527 432.917 237.255 430.101 239.803 426.941 C 240.75 425.755 240.75 425.755 241.717 424.546 C 242.199 423.954 242.681 423.363 243.178 422.753 Z" style="stroke-width: 1; fill: rgb(20, 63, 107); paint-order: stroke markers;"/>
      <path d="M 247.178 330.753 C 249.653 331.248 249.653 331.248 252.178 331.753 C 251.848 333.073 251.518 334.393 251.178 335.753 C 249.858 336.083 248.538 336.413 247.178 336.753 C 247.178 334.773 247.178 332.793 247.178 330.753 Z" style="stroke-width: 1; paint-order: stroke markers;" fill="#F7CA75"/>
      <path d="M 158.178 332.753 C 160.488 333.413 162.798 334.073 165.178 334.753 C 164.518 336.073 163.858 337.393 163.178 338.753 C 161.47 337.473 159.804 336.136 158.178 334.753 C 158.178 334.093 158.178 333.433 158.178 332.753 Z" style="stroke-width: 1; paint-order: stroke markers;" fill="#3D5C7A"/>
    </g>
    <text style="fill: rgb(0, 178, 254); font-family: Arial, sans-serif; font-size: 31px; font-weight: 700; letter-spacing: 2.6px; paint-order: stroke markers; white-space: pre; transform-box: fill-box; transform-origin: 90.8268px -10.5895px;" x="208.26" y="403.988">NFS</text>
  </g>
</svg>